<svg xmlns="http://www.w3.org/2000/svg" xmlns:xlink="http://www.w3.org/1999/xlink" width="1000" zoomAndPan="magnify" viewBox="0 0 750 749.999995" height="1000" preserveAspectRatio="xMidYMid meet" version="1.0"><defs><g/></defs><g fill="#000000" fill-opacity="1"><g transform="translate(6.878813, 442.828266)"><g><path d="M 93.03125 0.90625 C 90.9375 0.90625 88.984375 0.0234375 87.171875 -1.734375 C 68.941406 -19.742188 48.671875 -31.863281 26.359375 -38.09375 L 27.015625 -21.890625 L 27.4375 -5.625 C 27.4375 -3.195312 26.648438 -1.171875 25.078125 0.453125 C 23.503906 2.078125 21.535156 2.890625 19.171875 2.890625 C 16.796875 2.890625 14.820312 2.078125 13.25 0.453125 C 11.6875 -1.171875 10.90625 -3.195312 10.90625 -5.625 C 10.90625 -9.96875 10.695312 -16.453125 10.28125 -25.078125 C 9.875 -33.703125 9.671875 -40.1875 9.671875 -44.53125 C 9.671875 -49.601562 10.21875 -57.148438 11.3125 -67.171875 C 12.414062 -77.203125 12.96875 -84.722656 12.96875 -89.734375 C 12.96875 -92.546875 12.707031 -96.703125 12.1875 -102.203125 C 11.664062 -107.710938 11.40625 -111.875 11.40625 -114.6875 C 11.40625 -117.820312 12.285156 -120.578125 14.046875 -122.953125 C 16.140625 -125.867188 19.03125 -127.191406 22.71875 -126.921875 L 42.640625 -125.34375 C 50.179688 -124.40625 56.539062 -122.5625 61.71875 -119.8125 C 84.03125 -107.96875 95.1875 -93.503906 95.1875 -76.421875 C 95.1875 -68.054688 91.382812 -60.648438 83.78125 -54.203125 C 77.664062 -49.023438 70.035156 -45.085938 60.890625 -42.390625 C 78.023438 -33.191406 90.832031 -23.492188 99.3125 -13.296875 C 100.75 -11.535156 101.46875 -9.664062 101.46875 -7.6875 C 101.46875 -5.375 100.625 -3.363281 98.9375 -1.65625 C 97.257812 0.0507812 95.289062 0.90625 93.03125 0.90625 Z M 40.40625 -108.328125 L 28.171875 -109.3125 L 29 -99.3125 C 29.382812 -95.238281 29.578125 -91.90625 29.578125 -89.3125 C 29.578125 -84.90625 29.21875 -79.425781 28.5 -72.875 L 26.765625 -56.4375 C 27.535156 -56.4375 28.734375 -56.40625 30.359375 -56.34375 C 31.984375 -56.289062 33.210938 -56.265625 34.046875 -56.265625 C 48.085938 -56.265625 58.609375 -58.140625 65.609375 -61.890625 C 68.691406 -63.597656 71.554688 -65.828125 74.203125 -68.578125 C 77.117188 -71.660156 78.578125 -74.273438 78.578125 -76.421875 C 78.578125 -84.085938 74.222656 -91.222656 65.515625 -97.828125 C 57.535156 -103.890625 49.164062 -107.390625 40.40625 -108.328125 Z M 40.40625 -108.328125 "/></g></g><g transform="translate(113.22292, 442.828266)"><g><path d="M 76.015625 5.453125 C 74.972656 5.453125 73.070312 4.238281 70.3125 1.8125 C 67.832031 -0.4375 65.988281 -2.445312 64.78125 -4.21875 C 59.488281 -1.351562 54.832031 0.804688 50.8125 2.265625 C 46.789062 3.734375 43.429688 4.46875 40.734375 4.46875 C 27.847656 4.46875 18.457031 0.832031 12.5625 -6.4375 C 7 -13.269531 4.21875 -23.738281 4.21875 -37.84375 C 4.21875 -51.175781 8.800781 -62.578125 17.96875 -72.046875 C 27.144531 -81.523438 38.09375 -86.265625 50.8125 -86.265625 C 55.601562 -86.265625 60.972656 -85.023438 66.921875 -82.546875 C 74.421875 -79.460938 78.171875 -75.742188 78.171875 -71.390625 C 78.171875 -69.898438 77.617188 -68.578125 76.515625 -67.421875 C 75.960938 -65.328125 75.535156 -61.882812 75.234375 -57.09375 C 74.929688 -52.300781 74.75 -46.160156 74.6875 -38.671875 C 74.632812 -31.835938 75.101562 -26.4375 76.09375 -22.46875 C 76.644531 -20.050781 78.378906 -15.207031 81.296875 -7.9375 C 81.679688 -6.9375 82.316406 -5.472656 83.203125 -3.546875 L 83.703125 -2.140625 C 83.703125 0.0546875 82.929688 1.867188 81.390625 3.296875 C 79.847656 4.734375 78.054688 5.453125 76.015625 5.453125 Z M 58.828125 -51.96875 C 58.828125 -54.34375 58.976562 -56.921875 59.28125 -59.703125 C 59.582031 -62.484375 60.035156 -65.441406 60.640625 -68.578125 C 58.609375 -69.628906 56.863281 -70.398438 55.40625 -70.890625 C 53.945312 -71.390625 52.773438 -71.640625 51.890625 -71.640625 C 43.347656 -71.640625 35.976562 -68.15625 29.78125 -61.1875 C 23.582031 -54.21875 20.484375 -46.1875 20.484375 -37.09375 C 20.484375 -28.0625 22.082031 -21.285156 25.28125 -16.765625 C 28.476562 -12.253906 33.269531 -10 39.65625 -10 C 44.945312 -10 49.4375 -10.960938 53.125 -12.890625 C 55.113281 -13.929688 57.894531 -16.023438 61.46875 -19.171875 C 59.707031 -33.765625 58.828125 -44.695312 58.828125 -51.96875 Z M 58.828125 -51.96875 "/></g></g><g transform="translate(199.818587, 442.828266)"><g><path d="M 74.859375 5.859375 C 70.117188 5.859375 67.445312 3.269531 66.84375 -1.90625 L 64.53125 -20 C 63.757812 -26.4375 63.375 -32.46875 63.375 -38.09375 C 63.375 -39.632812 63.46875 -42.25 63.65625 -45.9375 C 63.851562 -49.625 63.953125 -52.242188 63.953125 -53.796875 C 63.953125 -65.691406 61.75 -71.640625 57.34375 -71.640625 C 51.175781 -71.640625 45.28125 -67.972656 39.65625 -60.640625 C 34.59375 -53.984375 30.628906 -45.554688 27.765625 -35.359375 C 27.648438 -33.210938 27.398438 -30.515625 27.015625 -27.265625 C 26.679688 -24.515625 26.515625 -21.84375 26.515625 -19.25 C 26.515625 -17.59375 26.679688 -15.113281 27.015625 -11.8125 C 27.347656 -8.507812 27.515625 -6.03125 27.515625 -4.375 C 27.515625 -1.894531 26.753906 0.113281 25.234375 1.65625 C 23.722656 3.195312 21.785156 3.96875 19.421875 3.96875 C 16.992188 3.96875 15.035156 3.195312 13.546875 1.65625 C 12.054688 0.113281 11.3125 -1.894531 11.3125 -4.375 C 11.3125 -6.03125 11.132812 -8.507812 10.78125 -11.8125 C 10.425781 -15.113281 10.25 -17.59375 10.25 -19.25 C 10.25 -24.925781 10.644531 -32.789062 11.4375 -42.84375 C 12.238281 -52.894531 12.640625 -60.757812 12.640625 -66.4375 C 12.640625 -68.195312 12.539062 -70.8125 12.34375 -74.28125 C 12.15625 -77.75 12.0625 -80.363281 12.0625 -82.125 C 12.0625 -84.5 12.84375 -86.441406 14.40625 -87.953125 C 15.976562 -89.472656 17.925781 -90.234375 20.25 -90.234375 C 25.3125 -90.234375 28.09375 -86.648438 28.59375 -79.484375 L 28.84375 -69.8125 C 38.09375 -82.15625 47.59375 -88.328125 57.34375 -88.328125 C 66.15625 -88.328125 72.296875 -84.441406 75.765625 -76.671875 C 78.140625 -71.492188 79.4375 -63.835938 79.65625 -53.703125 L 79.65625 -45.359375 L 79.5625 -37.671875 C 79.5625 -33.097656 80.15625 -27.191406 81.34375 -19.953125 C 82.53125 -12.710938 83.125 -6.832031 83.125 -2.3125 C 83.125 0.113281 82.335938 2.082031 80.765625 3.59375 C 79.191406 5.101562 77.222656 5.859375 74.859375 5.859375 Z M 74.859375 5.859375 "/></g></g><g transform="translate(288.397362, 442.828266)"><g><path d="M 80.3125 3.390625 C 77.28125 3.390625 74.941406 1.789062 73.296875 -1.40625 C 70.429688 -6.96875 66.101562 -13.550781 60.3125 -21.15625 L 45.6875 -41.0625 C 42.5 -38.53125 37.539062 -34.976562 30.8125 -30.40625 C 30.207031 -21.863281 29.90625 -13.546875 29.90625 -5.453125 C 29.90625 -2.972656 29.144531 -0.960938 27.625 0.578125 C 26.113281 2.117188 24.175781 2.890625 21.8125 2.890625 C 16.25 2.890625 13.46875 -0.851562 13.46875 -8.34375 C 13.46875 -12.914062 13.785156 -19.757812 14.421875 -28.875 C 15.054688 -37.988281 15.375 -44.832031 15.375 -49.40625 C 15.375 -57.78125 15.492188 -67.351562 15.734375 -78.125 C 15.984375 -88.894531 16.109375 -98.410156 16.109375 -106.671875 C 16.109375 -109.148438 15.984375 -112.066406 15.734375 -115.421875 C 15.492188 -118.785156 15.375 -121.707031 15.375 -124.1875 C 15.375 -126.664062 16.128906 -128.675781 17.640625 -130.21875 C 19.148438 -131.757812 21.09375 -132.53125 23.46875 -132.53125 C 25.832031 -132.53125 27.769531 -131.757812 29.28125 -130.21875 C 30.800781 -128.675781 31.5625 -126.664062 31.5625 -124.1875 C 31.5625 -121.65625 31.695312 -118.664062 31.96875 -115.21875 C 32.25 -111.78125 32.390625 -108.789062 32.390625 -106.25 L 31.8125 -79.65625 C 31.53125 -70.070312 31.445312 -60.484375 31.5625 -50.890625 C 39.050781 -56.617188 46.269531 -62.898438 53.21875 -69.734375 L 71.390625 -88.5 C 73.203125 -90.363281 75.15625 -91.296875 77.25 -91.296875 C 79.40625 -91.296875 81.347656 -90.441406 83.078125 -88.734375 C 84.816406 -87.023438 85.6875 -85.046875 85.6875 -82.796875 C 85.6875 -80.921875 84.882812 -79.070312 83.28125 -77.25 C 76.507812 -69.320312 68.164062 -60.8125 58.25 -51.71875 L 76.265625 -27.1875 C 84.691406 -15.675781 88.90625 -8.179688 88.90625 -4.703125 C 88.90625 -2.503906 88.035156 -0.609375 86.296875 0.984375 C 84.566406 2.585938 82.570312 3.390625 80.3125 3.390625 Z M 80.3125 3.390625 "/></g></g><g transform="translate(379.785537, 442.828266)"><g><path d="M 50.078125 3.796875 C 37.617188 3.796875 27.535156 0.6875 19.828125 -5.53125 C 11.398438 -12.414062 7.1875 -22.054688 7.1875 -34.453125 C 7.1875 -48.773438 10.65625 -60.785156 17.59375 -70.484375 C 25.144531 -81.054688 35.226562 -86.34375 47.84375 -86.34375 C 56.988281 -86.34375 64.453125 -84.800781 70.234375 -81.71875 C 77.335938 -77.914062 80.890625 -72.078125 80.890625 -64.203125 C 80.890625 -58.691406 77.773438 -53.675781 71.546875 -49.15625 C 68.796875 -47.175781 62.957031 -44.09375 54.03125 -39.90625 L 22.46875 -24.953125 C 25.550781 -20.378906 29.394531 -16.9375 34 -14.625 C 38.601562 -12.3125 43.960938 -11.15625 50.078125 -11.15625 C 53.867188 -11.15625 58.328125 -11.867188 63.453125 -13.296875 C 69.953125 -15.117188 74.140625 -17.503906 76.015625 -20.453125 C 77.890625 -23.398438 79.898438 -24.875 82.046875 -24.875 C 83.972656 -24.875 85.691406 -24.140625 87.203125 -22.671875 C 88.722656 -21.210938 89.484375 -19.519531 89.484375 -17.59375 C 89.484375 -11.476562 84.550781 -6.21875 74.6875 -1.8125 C 66.257812 1.925781 58.054688 3.796875 50.078125 3.796875 Z M 47.84375 -71.46875 C 41.125 -71.46875 35.53125 -68.863281 31.0625 -63.65625 C 26.601562 -58.457031 23.269531 -50.625 21.0625 -40.15625 L 46.4375 -52.21875 C 56.40625 -57.0625 63.507812 -61.273438 67.75 -64.859375 C 63.007812 -69.265625 56.375 -71.46875 47.84375 -71.46875 Z M 47.84375 -71.46875 "/></g></g><g transform="translate(472.495784, 442.828266)"><g><path d="M 75.765625 -61.0625 C 75.378906 -54.175781 72.625 -50.734375 67.5 -50.734375 C 62.769531 -50.734375 60.40625 -53.457031 60.40625 -58.90625 C 60.40625 -59.957031 60.320312 -61.890625 60.15625 -64.703125 L 59.90625 -71.640625 C 51.195312 -70.585938 44.226562 -68.132812 39 -64.28125 C 34.09375 -60.695312 30.015625 -55.300781 26.765625 -48.09375 L 26.9375 -2.8125 C 26.9375 2.75 24.207031 5.53125 18.75 5.53125 C 13.90625 5.53125 11.484375 2.75 11.484375 -2.8125 L 11.484375 -60.8125 C 11.484375 -62.632812 11.550781 -65.363281 11.6875 -69 C 11.820312 -72.632812 11.890625 -75.359375 11.890625 -77.171875 C 11.890625 -82.734375 14.316406 -85.515625 19.171875 -85.515625 C 24.566406 -85.515625 27.289062 -80.941406 27.34375 -71.796875 C 37.925781 -81.992188 49.660156 -87.09375 62.546875 -87.09375 C 67.003906 -87.09375 70.332031 -85.410156 72.53125 -82.046875 C 74.738281 -78.679688 75.84375 -73.613281 75.84375 -66.84375 C 75.84375 -63.976562 75.816406 -62.050781 75.765625 -61.0625 Z M 75.765625 -61.0625 "/></g></g><g transform="translate(553.803166, 442.828266)"><g><path d="M 91.390625 -108.578125 C 90.390625 -108.578125 89.34375 -108.796875 88.25 -109.234375 C 81.414062 -111.765625 72.378906 -113.03125 61.140625 -113.03125 C 57.503906 -113.03125 53.25 -112.769531 48.375 -112.25 C 43.5 -111.726562 38.03125 -110.914062 31.96875 -109.8125 L 31.8125 -74.109375 C 42.445312 -76.921875 50.429688 -78.328125 55.765625 -78.328125 C 64.253906 -78.328125 73.039062 -77.832031 82.125 -76.84375 C 87.300781 -76.289062 89.890625 -73.484375 89.890625 -68.421875 C 89.890625 -65.941406 89.09375 -63.890625 87.5 -62.265625 C 85.90625 -60.640625 83.921875 -59.828125 81.546875 -59.828125 C 78.679688 -59.828125 74.382812 -60.070312 68.65625 -60.5625 C 62.925781 -61.0625 58.628906 -61.3125 55.765625 -61.3125 C 52.023438 -61.3125 43.929688 -59.710938 31.484375 -56.515625 L 30.734375 0.328125 C 30.734375 2.703125 29.960938 4.703125 28.421875 6.328125 C 26.878906 7.953125 24.925781 8.765625 22.5625 8.765625 C 20.1875 8.765625 18.210938 7.953125 16.640625 6.328125 C 15.078125 4.703125 14.296875 2.703125 14.296875 0.328125 C 14.296875 -10.523438 14.5 -26.816406 14.90625 -48.546875 C 15.320312 -70.273438 15.53125 -86.566406 15.53125 -97.421875 C 15.53125 -99.835938 15.488281 -103.484375 15.40625 -108.359375 C 15.320312 -113.234375 15.28125 -116.882812 15.28125 -119.3125 C 15.28125 -121.738281 16.035156 -123.773438 17.546875 -125.421875 C 19.066406 -127.078125 21.039062 -127.90625 23.46875 -127.90625 C 25.28125 -127.90625 26.90625 -127.410156 28.34375 -126.421875 C 35.175781 -127.628906 41.316406 -128.519531 46.765625 -129.09375 C 52.222656 -129.675781 57.015625 -129.96875 61.140625 -129.96875 C 67.472656 -129.96875 74.71875 -129.0625 82.875 -127.25 C 93.945312 -124.707031 99.484375 -121.398438 99.484375 -117.328125 C 99.484375 -115.128906 98.765625 -113.175781 97.328125 -111.46875 C 95.734375 -109.539062 93.753906 -108.578125 91.390625 -108.578125 Z M 91.390625 -108.578125 "/></g></g><g transform="translate(656.511577, 442.828266)"><g><path d="M 76.015625 5.453125 C 74.972656 5.453125 73.070312 4.238281 70.3125 1.8125 C 67.832031 -0.4375 65.988281 -2.445312 64.78125 -4.21875 C 59.488281 -1.351562 54.832031 0.804688 50.8125 2.265625 C 46.789062 3.734375 43.429688 4.46875 40.734375 4.46875 C 27.847656 4.46875 18.457031 0.832031 12.5625 -6.4375 C 7 -13.269531 4.21875 -23.738281 4.21875 -37.84375 C 4.21875 -51.175781 8.800781 -62.578125 17.96875 -72.046875 C 27.144531 -81.523438 38.09375 -86.265625 50.8125 -86.265625 C 55.601562 -86.265625 60.972656 -85.023438 66.921875 -82.546875 C 74.421875 -79.460938 78.171875 -75.742188 78.171875 -71.390625 C 78.171875 -69.898438 77.617188 -68.578125 76.515625 -67.421875 C 75.960938 -65.328125 75.535156 -61.882812 75.234375 -57.09375 C 74.929688 -52.300781 74.75 -46.160156 74.6875 -38.671875 C 74.632812 -31.835938 75.101562 -26.4375 76.09375 -22.46875 C 76.644531 -20.050781 78.378906 -15.207031 81.296875 -7.9375 C 81.679688 -6.9375 82.316406 -5.472656 83.203125 -3.546875 L 83.703125 -2.140625 C 83.703125 0.0546875 82.929688 1.867188 81.390625 3.296875 C 79.847656 4.734375 78.054688 5.453125 76.015625 5.453125 Z M 58.828125 -51.96875 C 58.828125 -54.34375 58.976562 -56.921875 59.28125 -59.703125 C 59.582031 -62.484375 60.035156 -65.441406 60.640625 -68.578125 C 58.609375 -69.628906 56.863281 -70.398438 55.40625 -70.890625 C 53.945312 -71.390625 52.773438 -71.640625 51.890625 -71.640625 C 43.347656 -71.640625 35.976562 -68.15625 29.78125 -61.1875 C 23.582031 -54.21875 20.484375 -46.1875 20.484375 -37.09375 C 20.484375 -28.0625 22.082031 -21.285156 25.28125 -16.765625 C 28.476562 -12.253906 33.269531 -10 39.65625 -10 C 44.945312 -10 49.4375 -10.960938 53.125 -12.890625 C 55.113281 -13.929688 57.894531 -16.023438 61.46875 -19.171875 C 59.707031 -33.765625 58.828125 -44.695312 58.828125 -51.96875 Z M 58.828125 -51.96875 "/></g></g></g></svg>